<svg width="50" height="50" viewBox="0 0 50 50" fill="none" xmlns="http://www.w3.org/2000/svg">
<path d="M15.9063 5.96875C15.8633 5.97656 15.8203 5.98828 15.7813 6C15.3164 6.10547 14.9883 6.52344 15 7V8H14C13.9688 8 13.9375 8 13.9063 8C13.3555 8.02734 12.9258 8.49609 12.9531 9.04688C12.9805 9.59766 13.4492 10.0274 14 10H15V11C14.9961 11.3594 15.1836 11.6953 15.4961 11.8789C15.8086 12.0586 16.1914 12.0586 16.5039 11.8789C16.8164 11.6953 17.0039 11.3594 17 11V10H18C18.3594 10.0039 18.6953 9.81642 18.8789 9.50392C19.0586 9.19142 19.0586 8.80861 18.8789 8.49611C18.6953 8.18361 18.3594 7.99611 18 8.00002H17V7.00002C17.0117 6.71096 16.8945 6.43361 16.6875 6.2383C16.4766 6.03908 16.1914 5.94141 15.9063 5.96875ZM28.3125 12.9688L27 13.1563C20.2188 14.125 15 19.957 15 27C15 34.7188 21.2813 41 29 41C36.043 41 41.8711 35.7813 42.8438 29L43.0313 27.6875L41.7188 27.875C41.1367 27.957 40.5664 28 40 28C33.3594 28 28 22.6406 28 16C28 15.4336 28.043 14.8633 28.125 14.2813L28.3125 12.9688ZM26.0313 15.5313C26.0235 15.6914 26 15.8359 26 16C26 23.7188 32.2813 30 40 30C40.1641 30 40.3086 29.9766 40.4688 29.9688C39.1289 35.1328 34.5899 39 29 39C22.3594 39 17 33.6406 17 27C17 21.4102 20.8672 16.8672 26.0313 15.5313ZM7.90626 17.9688C7.86329 17.9766 7.82032 17.9883 7.78126 18C7.31642 18.1055 6.98829 18.5234 7.00001 19C6.96876 19 6.93751 19 6.90626 19C6.35548 19.0273 5.92579 19.4961 5.95314 20.0469C5.98048 20.5977 6.44923 21.0274 7.00002 21C6.99611 21.3594 7.18361 21.6953 7.49611 21.8789C7.80861 22.0586 8.19142 22.0586 8.50392 21.8789C8.81642 21.6953 9.00392 21.3594 9.00001 21C9.35939 21.0039 9.69532 20.8164 9.87892 20.5039C10.0586 20.1914 10.0586 19.8086 9.87892 19.4961C9.69533 19.1836 9.35939 18.9961 9.00001 19C9.01173 18.711 8.89454 18.4336 8.68751 18.2383C8.47657 18.0391 8.19142 17.9414 7.90626 17.9688Z" fill="#999999"/>
</svg>
